<?xml version="1.0" encoding="utf-8"?>
<!-- Generator: Adobe Illustrator 22.0.1, SVG Export Plug-In . SVG Version: 6.00 Build 0)  -->
<svg version="1.1" id="Layer_1" xmlns="http://www.w3.org/2000/svg" xmlns:xlink="http://www.w3.org/1999/xlink" x="0px" y="0px"
	 viewBox="0 0 1000 1000" style="enable-background:new 0 0 1000 1000;" xml:space="preserve">
<g>
	<g>
		<g>
			<g>
				<path d="M305.1,569c-0.3,0-0.6,0-1-0.1c-32.5-6.4-56.1-35.1-56.1-68.3c0-38.4,31.2-69.6,69.6-69.6c38.4,0,69.6,31.2,69.6,69.6
					c0,33.2-23.6,61.9-56.1,68.3c-1.4,0.3-2.9-0.1-4.1-1c-1.1-0.9-1.8-2.3-1.8-3.8V508c0-2.7,2.2-4.9,4.9-4.9c2.7,0,4.9,2.2,4.9,4.9
					v49.7c24.8-7.6,42.2-30.7,42.2-57.1c0-33-26.8-59.8-59.8-59.8S258,467.7,258,500.6c0,26.4,17.4,49.5,42.2,57.1V508
					c0-2.7,2.2-4.9,4.9-4.9c2.7,0,4.9,2.2,4.9,4.9v56.1c0,1.5-0.7,2.9-1.8,3.8C307.4,568.6,306.2,569,305.1,569z"/>
			</g>
		</g>
		<g>
			<g>
				<circle cx="317.7" cy="479.1" r="14.5"/>
			</g>
		</g>
	</g>
	<g>
		<g>
			<path d="M400.7,529.2v-55.6h8v55.6H400.7z"/>
			<path d="M428,529.2v-47.9c0-5.5,2.2-8.3,6.6-8.3c0.7,0,1.6,0.1,2.5,0.3c2.1,0.5,3.8,2.3,5,5.3l16.9,41.1v-46.2h8v48.9
				c0,1.9-0.6,3.6-1.7,5c-1.2,1.4-2.7,2.2-4.6,2.4c-3.6,0.4-6.2-1.4-7.9-5.6L436,484.2v45H428z"/>
			<path d="M482,481.6v-8h32v8h-12v47.6h-8v-47.6H482z"/>
			<path d="M528.9,514.2v-26.8c0-5.1,1.5-8.7,4.5-11c2.6-2,6.5-2.9,11.8-2.9h20.3v8H542c-1.5,0-2.7,0.6-3.7,1.9s-1.4,2.7-1.4,4.2
				v9.5h28.4v8H537v10.9c0,0.5,0.1,1.1,0.4,1.6c0.8,1.7,2,2.7,3.6,3.1c0.8,0.2,2.4,0.3,4.9,0.3h19.4v8h-21.5
				C533.9,529.2,528.9,524.2,528.9,514.2z"/>
			<path d="M583.7,529.2v-47.9c0-5.5,2.2-8.3,6.6-8.3c0.7,0,1.6,0.1,2.5,0.3c2.1,0.5,3.8,2.3,5,5.3l16.9,41.1v-46.2h8v48.9
				c0,1.9-0.6,3.6-1.7,5c-1.2,1.4-2.7,2.2-4.6,2.4c-3.5,0.4-6.2-1.4-7.9-5.6l-16.8-40.1v45H583.7z"/>
			<path d="M637.6,481.6v-8h32v8h-12v47.6h-8v-47.6H637.6z"/>
			<path d="M684.6,529.2v-55.6h8v55.6H684.6z"/>
			<path d="M711.9,513.6v-24.5c0-5.6,1.4-9.7,4.3-12.2c2.7-2.3,6.9-3.4,12.6-3.4h6.1c5.7,0,9.9,1.1,12.6,3.4
				c2.9,2.5,4.3,6.5,4.3,12.2v24.5c0,5.6-1.4,9.7-4.3,12.2c-2.7,2.3-6.9,3.4-12.6,3.4h-6.1c-7.4,0-12.4-2.6-15.1-7.8
				C712.5,519.1,711.9,516.5,711.9,513.6z M727.7,521.2h8.6c2.8,0,4.7-0.5,5.9-1.5c1.1-1,1.7-2.9,1.7-5.6v-25.3
				c0-2.8-0.6-4.6-1.7-5.7c-1.1-1-3.1-1.5-5.9-1.5h-8.6c-2.8,0-4.8,0.5-6,1.5c-1.2,1-1.8,2.9-1.8,5.7v25.1c0,2.8,0.6,4.6,1.8,5.7
				C722.9,520.6,724.9,521.2,727.7,521.2z"/>
		</g>
		<path d="M749.5,542.8H403.1c-1.3,0-2.4-1.1-2.4-2.4v-2.5c0-1.3,1.1-2.4,2.4-2.4h346.5c1.3,0,2.4,1.1,2.4,2.4v2.5
			C751.9,541.7,750.8,542.8,749.5,542.8z"/>
	</g>
</g>
</svg>
